<svg xmlns="http://www.w3.org/2000/svg" width="58.201" height="45" viewBox="0 0 58.201 45"><g transform="translate(-163 -124.5)"><g transform="translate(163 124.5)"><rect width="12.049" height="27.451" transform="translate(0 17.549)"/><rect width="12.049" height="27.451" transform="translate(46.153 17.549)"/><rect width="12.049" height="27.451" transform="translate(15.506 7.91)"/><rect width="12.049" height="27.451" transform="translate(30.646 7.91)"/><rect width="12.049" height="27.451" rx="6.024" transform="translate(15.506 17.549)"/><rect width="12.049" height="27.451" rx="6.024" transform="translate(30.646 17.549)"/><rect width="12.049" height="27.451" transform="translate(15.506 0.052)"/><rect width="12.049" height="27.451" transform="translate(30.646 0.052)"/><rect width="12.049" height="27.451" rx="6.024" transform="translate(27.503 32.899) rotate(90)"/><rect width="12.049" height="27.451" rx="6.024" transform="translate(58.149 32.899) rotate(90)"/><rect width="12.049" height="27.451" transform="translate(27.608 0) rotate(90)"/><rect width="12.049" height="27.451" transform="translate(58.044) rotate(90)"/></g></g></svg>