<svg xmlns="http://www.w3.org/2000/svg" width="824.478" height="688" viewBox="0 0 824.478 688"><g transform="translate(-1012 -256)"><g transform="translate(762 -893)"><g transform="translate(-667 827)"><g transform="translate(-95 60)"><ellipse cx="140.217" cy="64.5" rx="140.217" ry="64.5" transform="translate(1284.957 821)" fill="#a8a8a8"/><rect width="46.739" height="147.696" transform="translate(1400.87 736.87)" fill="#707070"/><rect width="824.478" height="476.739" rx="13" transform="translate(1012 262)" fill="#a8a8a8"/><g transform="translate(1413.957 710.696)" fill="#fff" stroke="#707070" stroke-width="1"><circle cx="11.217" cy="11.217" r="11.217" stroke="none"/><circle cx="11.217" cy="11.217" r="10.717" fill="none"/></g><path d="M1296,1002.2l26.674-59.622-4.142-.731-4.264-.487-4.7-.652-8.146-.865-5.407-.432Z" transform="translate(151.609 -117.639)" fill="#544f4f"/><g transform="translate(1026.957 278.826)" fill="#fff"><path d="M 795.9346313476563 427.6304321289063 L 0.4999682605266571 427.6304321289063 L 0.4999682605266571 0.5000519752502441 L 795.6220092773438 0.5329107046127319 L 795.9346313476563 427.6304321289063 Z" stroke="none"/><path d="M 0.99993896484375 1.00006103515625 L 0.99993896484375 427.1304321289063 L 795.4342651367188 427.1304321289063 L 795.1223754882813 1.03289794921875 L 0.99993896484375 1.00006103515625 M -6.103515625e-05 3.0517578125e-05 L 796.1216430664063 0.032928466796875 L 796.4349975585938 428.1304321289063 L -6.103515625e-05 428.1304321289063 L -6.103515625e-05 3.0517578125e-05 Z" stroke="none" fill="#707070"/></g><g transform="translate(1027 279)" fill="#ebebeb" stroke="#707070" stroke-width="1"><rect width="796" height="22" stroke="none"/><rect x="0.5" y="0.5" width="795" height="21" fill="none"/></g><circle cx="5" cy="5" r="5" transform="translate(1035 285)" fill="#fb5f5a"/><circle cx="5" cy="5" r="5" transform="translate(1054 285)" fill="#fdbc40"/><circle cx="5" cy="5" r="5" transform="translate(1073 285)" fill="#34ca4a"/></g><g transform="translate(932 360)" fill="#fff"><path d="M 0.5296233892440796 406.4967956542969 L 0.5000463128089905 0.5000156760215759 L 118.0983657836914 0.5000156760215759 L 118.1002044677734 406.4238891601563 L 0.5296233892440796 406.4967956542969 Z" stroke="none"/><path d="M 1.000083923339844 1.000030517578125 L 1.029586791992188 405.9964904785156 L 117.6002044677734 405.9241943359375 L 117.5983123779297 1.000030517578125 L 1.000083923339844 1.000030517578125 M 7.62939453125e-06 3.0517578125e-05 L 118.5983123779297 3.0517578125e-05 L 118.600212097168 406.9235534667969 L 0.0296630859375 406.9971008300781 L 7.62939453125e-06 3.0517578125e-05 Z" stroke="none" fill="#707070"/></g></g><g transform="translate(-732 861)"><rect width="76" height="9" transform="translate(1007 349)" fill="#6b6b6b"/><rect width="61" height="9" transform="translate(1038 382)" fill="#6b6b6b"/><rect width="45" height="9" transform="translate(1038 415)" fill="#6b6b6b"/><rect width="50" height="9" transform="translate(1038 448)" fill="#6b6b6b"/><rect width="92" height="9" transform="translate(1007 481)" fill="#6b6b6b"/><rect width="67" height="9" transform="translate(1007 514)" fill="#6b6b6b"/><rect width="85" height="9" transform="translate(1007 547)" fill="#6b6b6b"/><rect width="92" height="9" transform="translate(1007 580)" fill="#6b6b6b"/><rect width="76" height="9" transform="translate(1007 613)" fill="#6b6b6b"/><rect width="92" height="9" transform="translate(1007 646)" fill="#6b6b6b"/><rect width="85" height="9" transform="translate(1007 679)" fill="#6b6b6b"/><rect width="92" height="9" transform="translate(1007 712)" fill="#6b6b6b"/></g><g transform="translate(-676 861)"><rect width="80.073" height="9" transform="translate(1143 349)" fill="#6b6b6b"/><rect width="80.073" height="9" transform="translate(1184.09 378)" fill="#6b6b6b"/><path d="M0,0H141.182V9H0Z" transform="translate(1284.617 378)" fill="#6b6b6b"/><rect width="52.68" height="9" transform="translate(1223.269 413.294)" fill="#6b6b6b"/><rect width="114.842" height="9" transform="translate(1289.869 413.294)" fill="#6b6b6b"/><rect width="22.125" height="9" transform="translate(1426.008 413.294)" fill="#6b6b6b"/><rect width="80.073" height="9" transform="translate(1469.412 413.294)" fill="#6b6b6b"/><rect width="97.984" height="9" transform="translate(1223.292 445.441)" fill="#6b6b6b"/><rect width="80.073" height="9" transform="translate(1334.199 445.441)" fill="#6b6b6b"/><rect width="90.609" height="9" transform="translate(1426.121 445.441)" fill="#6b6b6b"/><rect width="53.733" height="9" transform="translate(1143 477.588)" fill="#6b6b6b"/><rect width="97.984" height="9" transform="translate(1212.537 477.588)" fill="#6b6b6b"/><rect width="60.055" height="9" transform="translate(1183.037 509.735)" fill="#6b6b6b"/><rect width="104.306" height="9" transform="translate(1262.387 509.735)" fill="#6b6b6b"/><rect width="23.179" height="9" transform="translate(1385.882 509.735)" fill="#6b6b6b"/><rect width="30.554" height="9" transform="translate(1223.26 541.882)" fill="#6b6b6b"/><rect width="133.806" height="9" transform="translate(1275.097 541.882)" fill="#6b6b6b"/><rect width="43.197" height="9" transform="translate(1430.264 541.882)" fill="#6b6b6b"/><rect width="80.073" height="9" transform="translate(1494.899 541.882)" fill="#6b6b6b"/><rect width="30.554" height="9" transform="translate(1596.044 541.882)" fill="#6b6b6b"/><rect width="52.68" height="9" transform="translate(1223.269 574.029)" fill="#6b6b6b"/><rect width="28.447" height="9" transform="translate(1297.181 574.029)" fill="#6b6b6b"/><rect width="71.644" height="9" transform="translate(1346.864 574.029)" fill="#6b6b6b"/><rect width="116.949" height="9" transform="translate(1440.112 574.029)" fill="#6b6b6b"/><rect width="49.519" height="9" transform="translate(1223.268 606.175)" fill="#6b6b6b"/><rect width="124.324" height="9" transform="translate(1289.88 606.175)" fill="#6b6b6b"/><rect width="27.393" height="9" transform="translate(1431.296 606.175)" fill="#6b6b6b"/><rect width="133.806" height="9" transform="translate(1263.472 638.322)" fill="#6b6b6b"/><rect width="63.216" height="9" transform="translate(1418.678 638.322)" fill="#6b6b6b"/><rect width="83.234" height="9" transform="translate(1503.328 638.322)" fill="#6b6b6b"/><rect width="32.661" height="9" transform="translate(1264.447 673.616)" fill="#6b6b6b"/><rect width="65.323" height="9" transform="translate(1317.281 673.616)" fill="#6b6b6b"/><rect width="80.073" height="9" transform="translate(1402.862 673.616)" fill="#6b6b6b"/><rect width="111.681" height="9" transform="translate(1503.328 673.616)" fill="#6b6b6b"/><rect width="69.537" height="9" transform="translate(1196.733 702.616)" fill="#6b6b6b"/><rect width="99.038" height="9" transform="translate(1271.891 702.616)" fill="#6b6b6b"/></g></g></g></svg>